<?xml version="1.0" standalone="no"?>
<!DOCTYPE svg PUBLIC "-//W3C//DTD SVG 20010904//EN"
 "http://www.w3.org/TR/2001/REC-SVG-20010904/DTD/svg10.dtd">
<svg version="1.0" xmlns="http://www.w3.org/2000/svg"
 width="1472.000000pt" height="1473.000000pt" viewBox="0 0 1472.000000 1473.000000"
 preserveAspectRatio="xMidYMid meet">

<g transform="translate(0.000000,1473.000000) scale(0.100000,-0.100000)"
fill="#000000" stroke="none">
<path d="M6895 14714 c-580 -48 -1161 -145 -1361 -229 l-35 -15 3 -574 c2
-316 6 -577 9 -580 3 -3 66 8 140 25 397 89 886 163 1334 201 202 17 905 17
1095 0 590 -53 1108 -172 1610 -369 194 -75 574 -261 745 -364 849 -508 1571
-1227 2242 -2234 297 -446 443 -737 594 -1185 144 -430 232 -856 286 -1380 25
-251 26 -988 0 -1240 -71 -702 -218 -1281 -462 -1825 -35 -77 -80 -183 -100
-235 -87 -227 -306 -613 -508 -896 -90 -126 -153 -207 -346 -445 l-24 -29 701
0 700 0 75 117 c220 349 434 758 561 1076 105 261 291 819 370 1109 76 279
132 596 156 883 28 354 40 1200 20 1497 -69 1009 -439 2094 -1068 3133 -798
1315 -1947 2381 -3078 2854 -66 27 -229 95 -364 151 -461 192 -1051 370 -1512
454 -395 73 -696 97 -1273 101 -253 1 -482 1 -510 -1z"/>
<path d="M4920 14304 c-1234 -341 -2392 -1187 -3322 -2424 -806 -1074 -1358
-2368 -1527 -3580 -34 -246 -64 -807 -58 -1090 12 -556 122 -1277 277 -1823
93 -328 244 -739 383 -1044 29 -65 67 -152 83 -193 16 -41 58 -122 93 -180 34
-58 78 -134 96 -170 42 -84 215 -370 296 -491 94 -142 362 -496 494 -654 246
-296 487 -541 810 -825 310 -273 417 -356 701 -547 780 -523 1468 -820 2499
-1078 l250 -63 3 581 c1 319 1 581 -1 583 -1 1 -175 55 -387 120 -474 144
-629 206 -1083 436 -486 246 -900 517 -1221 798 -124 109 -611 613 -675 699
-20 26 -87 108 -149 182 -129 154 -203 255 -320 438 -212 334 -429 746 -537
1021 -668 1695 -609 3520 165 5089 216 436 437 784 736 1157 70 87 139 179
155 205 24 39 91 99 110 99 3 0 4 -78 1 -172 -4 -169 -4 -174 20 -208 61 -89
163 -96 1126 -81 416 6 846 11 955 11 l197 0 0 1620 0 1620 -22 -1 c-13 0 -79
-16 -148 -35z"/>
<path d="M2863 10843 c-13 -2 -32 -16 -43 -30 -20 -25 -20 -37 -20 -1139 l0
-1114 1790 0 1790 0 0 -1520 0 -1520 1270 0 1270 0 0 1520 0 1520 1791 0 1792
0 -7 98 c-10 142 -44 361 -76 487 -131 519 -500 1028 -970 1340 -261 173 -571
281 -995 347 -63 9 -898 12 -3825 14 -2060 1 -3755 -1 -3767 -3z"/>
<path d="M2800 7468 c0 -925 7 -1061 75 -1456 78 -451 244 -907 453 -1246 106
-173 497 -683 606 -792 344 -342 868 -645 1451 -839 275 -92 500 -144 805
-187 63 -8 646 -12 2243 -15 l2157 -4 0 1145 0 1146 -2132 3 c-2378 4 -2182
-2 -2408 73 -439 147 -765 523 -894 1029 -61 242 -60 218 -63 1113 l-4 822
-1144 0 -1145 0 0 -792z"/>
</g>
</svg>
